<svg width="25" height="25" viewBox="0 0 25 25" fill="none" xmlns="http://www.w3.org/2000/svg">
<path d="M24.5 12.8872C24.5 6.25979 19.1274 0.887207 12.5 0.887207V0.887207C5.87258 0.887207 0.5 6.25979 0.5 12.8872V12.8872C0.5 19.5146 5.87258 24.8872 12.5 24.8872V24.8872C19.1274 24.8872 24.5 19.5146 24.5 12.8872V12.8872Z" fill="#851416"/>
<path fill-rule="evenodd" clip-rule="evenodd" d="M18.3723 13.0237C18.3723 12.5982 18.3341 12.1891 18.2632 11.7964H12.6123V14.1173H15.8414C15.7023 14.8673 15.2796 15.5028 14.6441 15.9282V17.4337H16.5832C17.7178 16.3891 18.3723 14.8509 18.3723 13.0237Z" fill="white"/>
<path fill-rule="evenodd" clip-rule="evenodd" d="M12.6121 18.8874C14.2321 18.8874 15.5903 18.3501 16.583 17.4337L14.6439 15.9283C14.1066 16.2883 13.4193 16.501 12.6121 16.501C11.0493 16.501 9.72661 15.4455 9.25479 14.0273H7.25024V15.5819C8.23752 17.5428 10.2666 18.8874 12.6121 18.8874Z" fill="white"/>
<path fill-rule="evenodd" clip-rule="evenodd" d="M9.25504 14.0269C9.13504 13.6669 9.06686 13.2824 9.06686 12.8869C9.06686 12.4915 9.13504 12.1069 9.25504 11.7469V10.1924H7.25049C6.84412 11.0024 6.6123 11.9187 6.6123 12.8869C6.6123 13.8551 6.84412 14.7715 7.25049 15.5815L9.25504 14.0269Z" fill="white"/>
<path fill-rule="evenodd" clip-rule="evenodd" d="M12.6121 9.27358C13.493 9.27358 14.2839 9.5763 14.9057 10.1709L16.6266 8.44994C15.5875 7.48175 14.2293 6.88721 12.6121 6.88721C10.2666 6.88721 8.23752 8.23176 7.25024 10.1927L9.25479 11.7472C9.72661 10.329 11.0493 9.27358 12.6121 9.27358Z" fill="white"/>
</svg>
