<svg width="25" height="25" viewBox="0 0 25 25" fill="none" xmlns="http://www.w3.org/2000/svg">
<rect x="0.5" y="0.887207" width="24" height="24" rx="12" fill="#1C58A7"/>
<path d="M17.3 13.334V16.6435H15.3628V13.5358C15.3628 12.769 15.0803 12.2444 14.3942 12.2444C13.8696 12.2444 13.5467 12.6076 13.4256 12.9305C13.3852 13.0515 13.3449 13.213 13.3449 13.4148V16.6435H11.4077C11.4077 16.6435 11.448 11.3968 11.4077 10.8722H13.3449V11.6793C13.587 11.2757 14.0713 10.7107 15.0803 10.7107C16.3314 10.7107 17.3 11.5583 17.3 13.334ZM9.38973 8.0874C8.74399 8.0874 8.30005 8.53135 8.30005 9.09637C8.30005 9.66139 8.70364 10.1053 9.34938 10.1053C10.0355 10.1053 10.4391 9.66139 10.4391 9.09637C10.4794 8.49099 10.0758 8.0874 9.38973 8.0874ZM8.42112 16.6435H10.3583V10.8722H8.42112V16.6435Z" fill="white"/>
</svg>
