<svg width="24" height="25" viewBox="0 0 24 25" fill="none" xmlns="http://www.w3.org/2000/svg">
<rect y="0.887207" width="24" height="24" rx="12" fill="url(#paint0_radial_4_1388)"/>
<path d="M12 7.97154C13.5904 7.97154 13.8072 7.97154 14.4578 7.97154C15.0361 7.97154 15.3253 8.11612 15.5422 8.18841C15.8313 8.33299 16.0482 8.40528 16.2651 8.62215C16.4819 8.83901 16.6265 9.05588 16.6988 9.34504C16.7711 9.56191 16.8434 9.85106 16.9157 10.4294C16.9157 11.08 16.9157 11.2246 16.9157 12.8872C16.9157 14.5499 16.9157 14.6944 16.9157 15.345C16.9157 15.9234 16.7711 16.2125 16.6988 16.4294C16.5542 16.7185 16.4819 16.9354 16.2651 17.1523C16.0482 17.3691 15.8313 17.5137 15.5422 17.586C15.3253 17.6583 15.0361 17.7306 14.4578 17.8029C13.8072 17.8029 13.6627 17.8029 12 17.8029C10.3373 17.8029 10.1928 17.8029 9.54217 17.8029C8.96386 17.8029 8.6747 17.6583 8.45783 17.586C8.16868 17.4414 7.95181 17.3691 7.73494 17.1523C7.51807 16.9354 7.37349 16.7185 7.30121 16.4294C7.22892 16.2125 7.15663 15.9234 7.08434 15.345C7.08434 14.6944 7.08434 14.5499 7.08434 12.8872C7.08434 11.2246 7.08434 11.08 7.08434 10.4294C7.08434 9.85106 7.22892 9.56191 7.30121 9.34504C7.44578 9.05588 7.51807 8.83901 7.73494 8.62215C7.95181 8.40528 8.16868 8.2607 8.45783 8.18841C8.6747 8.11612 8.96386 8.04383 9.54217 7.97154C10.1928 7.97154 10.4096 7.97154 12 7.97154ZM12 6.88721C10.3373 6.88721 10.1928 6.88721 9.54217 6.88721C8.89157 6.88721 8.45783 7.03179 8.09639 7.17636C7.73494 7.32094 7.37349 7.53781 7.01205 7.89926C6.6506 8.2607 6.50602 8.54986 6.28916 8.98359C6.14458 9.34504 6.07229 9.77877 6 10.4294C6 11.08 6 11.2968 6 12.8872C6 14.5499 6 14.6944 6 15.345C6 15.9956 6.14458 16.4294 6.28916 16.7908C6.43374 17.1523 6.6506 17.5137 7.01205 17.8752C7.37349 18.2366 7.66265 18.3812 8.09639 18.5981C8.45783 18.7426 8.89157 18.8149 9.54217 18.8872C10.1928 18.8872 10.4096 18.8872 12 18.8872C13.5904 18.8872 13.8072 18.8872 14.4578 18.8872C15.1084 18.8872 15.5422 18.7426 15.9036 18.5981C16.2651 18.4535 16.6265 18.2366 16.988 17.8752C17.3494 17.5137 17.494 17.2246 17.7108 16.7908C17.8554 16.4294 17.9277 15.9956 18 15.345C18 14.6944 18 14.4776 18 12.8872C18 11.2968 18 11.08 18 10.4294C18 9.77877 17.8554 9.34504 17.7108 8.98359C17.5663 8.62215 17.3494 8.2607 16.988 7.89926C16.6265 7.53781 16.3374 7.39323 15.9036 7.17636C15.5422 7.03179 15.1084 6.9595 14.4578 6.88721C13.8072 6.88721 13.6627 6.88721 12 6.88721Z" fill="white"/>
<path d="M12 9.77877C10.2651 9.77877 8.89157 11.1523 8.89157 12.8872C8.89157 14.6221 10.2651 15.9956 12 15.9956C13.7349 15.9956 15.1084 14.6221 15.1084 12.8872C15.1084 11.1523 13.7349 9.77877 12 9.77877ZM12 14.9113C10.9157 14.9113 9.9759 14.0438 9.9759 12.8872C9.9759 11.8029 10.8434 10.8631 12 10.8631C13.0843 10.8631 14.0241 11.7306 14.0241 12.8872C14.0241 13.9715 13.0843 14.9113 12 14.9113Z" fill="white"/>
<path d="M15.1807 10.4294C15.58 10.4294 15.9036 10.1057 15.9036 9.70648C15.9036 9.30724 15.58 8.98359 15.1807 8.98359C14.7815 8.98359 14.4578 9.30724 14.4578 9.70648C14.4578 10.1057 14.7815 10.4294 15.1807 10.4294Z" fill="white"/>
<defs>
<radialGradient id="paint0_radial_4_1388" cx="0" cy="0" r="1" gradientUnits="userSpaceOnUse" gradientTransform="translate(24.4828 1.37471) scale(55.4231)">
<stop stop-color="#F9ED32"/>
<stop offset="0.36" stop-color="#EE2A7B"/>
<stop offset="0.44" stop-color="#D22A8A"/>
<stop offset="0.6" stop-color="#8B2AB2"/>
<stop offset="0.83" stop-color="#1B2AF0"/>
<stop offset="0.88" stop-color="#002AFF"/>
</radialGradient>
</defs>
</svg>
