<svg width="24" height="25" viewBox="0 0 24 25" fill="none" xmlns="http://www.w3.org/2000/svg">
<rect y="0.887207" width="24" height="24" rx="12" fill="#19E36D"/>
<path d="M16.7561 8.12461C15.5707 6.94336 13.9902 6.28711 12.3219 6.28711C8.85366 6.28711 6.0439 9.08711 6.0439 12.5434C6.0439 13.6371 6.35122 14.7309 6.87805 15.6496L6 18.8871L9.33659 18.0121C10.2585 18.4934 11.2683 18.7559 12.3219 18.7559C15.7902 18.7559 18.6 15.9559 18.6 12.4996C18.5561 10.8809 17.9415 9.30586 16.7561 8.12461ZM15.3512 14.7746C15.2195 15.1246 14.6049 15.4746 14.2976 15.5184C14.0341 15.5621 13.6829 15.5621 13.3317 15.4746C13.1122 15.3871 12.8049 15.2996 12.4537 15.1246C10.8732 14.4684 9.86342 12.8934 9.77561 12.7621C9.68781 12.6746 9.11707 11.9309 9.11707 11.1434C9.11707 10.3559 9.51219 10.0059 9.6439 9.83086C9.77561 9.65586 9.95122 9.65586 10.0829 9.65586C10.1707 9.65586 10.3024 9.65586 10.3902 9.65586C10.478 9.65586 10.6098 9.61211 10.7415 9.91836C10.8732 10.2246 11.1805 11.0121 11.2244 11.0559C11.2683 11.1434 11.2683 11.2309 11.2244 11.3184C11.1805 11.4059 11.1366 11.4934 11.0488 11.5809C10.961 11.6684 10.8732 11.7996 10.8293 11.8434C10.7415 11.9309 10.6537 12.0184 10.7415 12.1496C10.8293 12.3246 11.1366 12.8059 11.6195 13.2434C12.2341 13.7684 12.7171 13.9434 12.8927 14.0309C13.0683 14.1184 13.1561 14.0746 13.2439 13.9871C13.3317 13.8996 13.639 13.5496 13.7268 13.3746C13.8146 13.1996 13.9463 13.2434 14.078 13.2871C14.2098 13.3309 15 13.7246 15.1317 13.8121C15.3073 13.8996 15.3951 13.9434 15.439 13.9871C15.4829 14.1184 15.4829 14.4246 15.3512 14.7746Z" fill="white"/>
</svg>
